<svg width="36" height="36" viewBox="0 0 36 36" fill="none" xmlns="http://www.w3.org/2000/svg">
<path fill-rule="evenodd" clip-rule="evenodd" d="M18 16.875C18.6213 16.875 19.125 17.3787 19.125 18L19.125 23.588L24.2036 20.7666C24.7468 20.4648 25.4317 20.6605 25.7334 21.2037C26.0352 21.7468 25.8395 22.4317 25.2963 22.7334L20.3165 25.5L25.2963 28.2666C25.8395 28.5683 26.0352 29.2532 25.7334 29.7963C25.4317 30.3395 24.7468 30.5352 24.2036 30.2334L19.125 27.412L19.125 33C19.125 33.6213 18.6213 34.125 18 34.125C17.3787 34.125 16.875 33.6213 16.875 33L16.875 27.412L11.7963 30.2334C11.2532 30.5352 10.5683 30.3395 10.2666 29.7963C9.96483 29.2532 10.1605 28.5683 10.7036 28.2666L15.6835 25.5L10.7036 22.7334C10.1605 22.4317 9.96483 21.7468 10.2666 21.2037C10.5683 20.6605 11.2532 20.4648 11.7963 20.7666L16.875 23.588L16.875 18C16.875 17.3787 17.3787 16.875 18 16.875Z" fill="#26AF61"/>
<path fill-rule="evenodd" clip-rule="evenodd" d="M11.0897 6.95381C10.1483 8.52279 10.125 10.4585 10.125 12C10.125 12.6213 9.62132 13.125 9 13.125C7.93003 13.125 6.30002 13.4552 4.96984 14.413C3.69703 15.3294 2.625 16.8667 2.625 19.5C2.625 21.2932 3.12234 22.5575 3.80608 23.4589C4.49884 24.3721 5.43628 24.9818 6.41033 25.3634C6.98885 25.59 7.27412 26.2427 7.0475 26.8212C6.82088 27.3997 6.16819 27.685 5.58967 27.4584C4.32314 26.9623 3.01057 26.1332 2.01348 24.8187C1.00737 23.4924 0.375 21.7401 0.375 19.5C0.375 16.1333 1.80297 13.9206 3.65516 12.587C5.02598 11.6 6.58648 11.122 7.8844 10.9512C7.92371 9.48371 8.1259 7.52022 9.16032 5.79619C10.5441 3.48993 13.226 1.875 18 1.875C22.774 1.875 25.4559 3.48993 26.8397 5.79619C27.8741 7.52022 28.0763 9.48372 28.1156 10.9513C29.4135 11.122 30.974 11.6 32.3448 12.587C34.197 13.9206 35.625 16.1333 35.625 19.5C35.625 21.7401 34.9926 23.4924 33.9865 24.8187C32.9894 26.1332 31.6769 26.9623 30.4103 27.4584C29.8318 27.685 29.1791 27.3997 28.9525 26.8212C28.7259 26.2427 29.0112 25.59 29.5897 25.3634C30.5637 24.9818 31.5012 24.3721 32.1939 23.4589C32.8777 22.5575 33.375 21.2932 33.375 19.5C33.375 16.8667 32.303 15.3294 31.0302 14.413C29.7 13.4552 28.07 13.125 27 13.125C26.3787 13.125 25.875 12.6213 25.875 12C25.875 10.4585 25.8517 8.52279 24.9103 6.95381C24.0441 5.51007 22.226 4.125 18 4.125C13.774 4.125 11.9559 5.51007 11.0897 6.95381Z" fill="#26AF61"/>
</svg>
