<svg width="36" height="36" viewBox="0 0 36 36" fill="none" xmlns="http://www.w3.org/2000/svg">
<path fill-rule="evenodd" clip-rule="evenodd" d="M11.9545 16.4545C12.3938 16.0152 13.1061 16.0152 13.5455 16.4545L17.25 20.159L23.9545 13.4545C24.3938 13.0152 25.1061 13.0152 25.5455 13.4545C25.9848 13.8938 25.9848 14.6062 25.5455 15.0455L18.0455 22.5455C17.6061 22.9848 16.8938 22.9848 16.4545 22.5455L11.9545 18.0455C11.5152 17.6062 11.5152 16.8938 11.9545 16.4545Z" fill="#26AF61"/>
<path fill-rule="evenodd" clip-rule="evenodd" d="M17.1052 2.04641C17.6945 1.91544 18.3055 1.91544 18.8949 2.04641L30.3881 4.60046C31.7212 4.8967 32.613 6.16403 32.4182 7.52789L29.6137 27.1591C29.5452 27.6389 29.2971 29.2705 27.6076 30.7498C25.9375 32.2121 23.0338 33.375 18 33.375C12.9662 33.375 10.0625 32.2121 8.39244 30.7498C6.70293 29.2705 6.45486 27.6389 6.38632 27.1591L3.58186 7.52789C3.38702 6.16403 4.27886 4.8967 5.61193 4.60046L17.1052 2.04641ZM18.4068 4.24283C18.1389 4.1833 17.8612 4.1833 17.5933 4.24283L6.10003 6.79688C5.90282 6.84071 5.78239 7.0217 5.80925 7.20969L8.6154 26.8528C8.65513 27.1325 8.79413 28.1109 9.87464 29.057C10.9906 30.0341 13.2838 31.125 18 31.125C22.7162 31.125 25.0095 30.0341 26.1254 29.057C27.2059 28.1109 27.3449 27.1325 27.3846 26.8528L30.1908 7.20969C30.2176 7.0217 30.0972 6.84071 29.9 6.79688L18.4068 4.24283Z" fill="#26AF61"/>
</svg>
