<svg width="36" height="36" viewBox="0 0 36 36" fill="none" xmlns="http://www.w3.org/2000/svg">
<path fill-rule="evenodd" clip-rule="evenodd" d="M10.0962 15.5102C8.20267 16.9633 7.125 18.892 7.125 20.9375C7.125 23.2841 8.54985 25.489 10.993 26.9785C11.4309 27.2455 11.6328 27.7748 11.484 28.2655L10.8444 30.375H13.1122L15.144 28.8502C15.3388 28.704 15.5758 28.625 15.8193 28.625H19.4747C19.7182 28.625 19.9552 28.704 20.15 28.8502L22.1818 30.375H24.4496L23.81 28.2655C23.6612 27.7748 23.8631 27.2455 24.301 26.9785C25.7519 26.0939 26.8507 24.9478 27.4974 23.6772C27.7792 23.1235 28.4565 22.9031 29.0103 23.1849C29.564 23.4667 29.7844 24.144 29.5026 24.6978C28.7627 26.1516 27.618 27.4139 26.2068 28.416L26.6908 30.0124C27.0851 31.3129 26.1119 32.625 24.7529 32.625H22.1068C21.6684 32.625 21.2419 32.4828 20.8913 32.2196L19.0995 30.875H16.1945L14.4027 32.2196C14.0521 32.4828 13.6256 32.625 13.1872 32.625H10.541C9.1821 32.625 8.20886 31.3129 8.60316 30.0124L9.08724 28.4158C6.56165 26.6208 4.875 23.9778 4.875 20.9375C4.875 18.047 6.4046 15.5069 8.72645 13.7252C11.0471 11.9444 14.2048 10.875 17.647 10.875C19.0236 10.875 20.6669 11.3044 21.7848 11.5965C21.8705 11.6189 21.9531 11.6405 22.0323 11.661C22.6338 11.8169 22.9949 12.4309 22.839 13.0323C22.6831 13.6338 22.0691 13.9949 21.4677 13.839C21.4086 13.8237 21.349 13.8082 21.289 13.7926C20.0978 13.4831 18.7199 13.125 17.647 13.125C14.6567 13.125 11.9909 14.0563 10.0962 15.5102Z" fill="#26AF61"/>
<path fill-rule="evenodd" clip-rule="evenodd" d="M29.1683 9.59503C29.4629 9.81259 29.6332 10.1599 29.6247 10.526L29.5165 15.2009L31.9341 16.2121C32.3526 16.3872 32.625 16.7964 32.625 17.25V22.5C32.625 22.9199 32.3911 23.3049 32.0184 23.4984L29.1296 24.9984C28.5781 25.2848 27.899 25.0698 27.6127 24.5184C27.3264 23.967 27.5413 23.2879 28.0927 23.0016L30.375 21.8165V17.9989L27.9399 16.9803C27.5127 16.8016 27.2386 16.3794 27.2493 15.9164L27.3383 12.0731L22.1058 13.8173C21.5163 14.0138 20.8792 13.6952 20.6827 13.1058C20.4863 12.5163 20.8048 11.8792 21.3942 11.6827L28.1442 9.43274C28.4917 9.31693 28.8737 9.37748 29.1683 9.59503Z" fill="#26AF61"/>
<path d="M23.25 19.5C22.8358 19.5 22.5 19.1642 22.5 18.75C22.5 18.3358 22.8358 18 23.25 18C23.6642 18 24 18.3358 24 18.75C24 19.1642 23.6642 19.5 23.25 19.5Z" fill="#26AF61"/>
<path fill-rule="evenodd" clip-rule="evenodd" d="M23.25 19.125C23.0429 19.125 22.875 18.9571 22.875 18.75C22.875 18.5429 23.0429 18.375 23.25 18.375C23.4571 18.375 23.625 18.5429 23.625 18.75C23.625 18.9571 23.4571 19.125 23.25 19.125ZM25.125 18.75C25.125 17.7145 24.2855 16.875 23.25 16.875C22.2145 16.875 21.375 17.7145 21.375 18.75C21.375 19.7855 22.2145 20.625 23.25 20.625C24.2855 20.625 25.125 19.7855 25.125 18.75Z" fill="#26AF61"/>
<path fill-rule="evenodd" clip-rule="evenodd" d="M4.12499 14.9952C4.12243 14.3761 3.61974 13.875 3 13.875C2.37868 13.875 1.875 14.3787 1.875 15H3C1.875 15 1.875 15.0005 1.875 15.001L1.875 15.002L1.87501 15.0043L1.87504 15.01L1.87519 15.0254L1.87616 15.0716C1.87719 15.1091 1.87913 15.1598 1.88278 15.2221C1.89005 15.3465 1.90419 15.5186 1.93174 15.7252C1.98642 16.1353 2.09618 16.6988 2.32003 17.3032C2.76793 18.5126 3.72166 19.991 5.67673 20.5776C6.27185 20.7561 6.89902 20.4184 7.07755 19.8233C7.25609 19.2281 6.91838 18.601 6.32327 18.4224C5.27834 18.109 4.73207 17.3374 4.42997 16.5218C4.27883 16.1137 4.20108 15.721 4.16201 15.4279C4.14268 15.283 4.13338 15.1668 4.12894 15.0908C4.12673 15.0529 4.12574 15.0254 4.12531 15.0097L4.12499 14.9953C4.12499 14.9953 4.12499 14.9953 4.12499 14.9953" fill="#26AF61"/>
<path fill-rule="evenodd" clip-rule="evenodd" d="M14.25 5.625C11.9912 5.625 10.125 7.49577 10.125 9.84708C10.125 10.9693 10.5511 11.9843 11.2444 12.7388L9.58768 14.2612C8.52432 13.1039 7.875 11.5499 7.875 9.84708C7.875 6.29217 10.7098 3.375 14.25 3.375C17.7902 3.375 20.625 6.29217 20.625 9.84708C20.625 10.5991 20.4982 11.3236 20.2641 11.9983L18.1384 11.2606C18.2912 10.8203 18.375 10.345 18.375 9.84708C18.375 7.49577 16.5088 5.625 14.25 5.625Z" fill="#26AF61"/>
</svg>
