<svg width="36" height="36" viewBox="0 0 36 36" fill="none" xmlns="http://www.w3.org/2000/svg">
<path fill-rule="evenodd" clip-rule="evenodd" d="M12.7046 15.7045C13.1439 15.2652 13.8562 15.2652 14.2955 15.7045L18 19.409L29.2046 8.2045C29.6439 7.76516 30.3562 7.76516 30.7955 8.2045C31.2349 8.64384 31.2349 9.35615 30.7955 9.79549L18.7955 21.7955C18.3562 22.2348 17.6439 22.2348 17.2046 21.7955L12.7046 17.2955C12.2652 16.8562 12.2652 16.1438 12.7046 15.7045Z" fill="#26AF61"/>
<path fill-rule="evenodd" clip-rule="evenodd" d="M18 7.125C11.9939 7.125 7.125 11.9939 7.125 18C7.125 24.0061 11.9939 28.875 18 28.875C24.0061 28.875 28.875 24.0061 28.875 18C28.875 17.3787 29.3787 16.875 30 16.875C30.6213 16.875 31.125 17.3787 31.125 18C31.125 25.2487 25.2487 31.125 18 31.125C10.7513 31.125 4.875 25.2487 4.875 18C4.875 10.7513 10.7513 4.875 18 4.875C19.5521 4.875 21.0436 5.14489 22.4286 5.64124C23.0135 5.85085 23.3177 6.49493 23.1081 7.07982C22.8985 7.66472 22.2544 7.96894 21.6695 7.75933C20.5246 7.34902 19.2897 7.125 18 7.125Z" fill="#26AF61"/>
</svg>
