<svg width="32" height="32" viewBox="0 0 32 32" fill="none" xmlns="http://www.w3.org/2000/svg">
<path fill-rule="evenodd" clip-rule="evenodd" d="M3 11.9999C3 9.97487 4.64162 8.33325 6.66667 8.33325H25.3333C27.3584 8.33325 29 9.97487 29 11.9999V23.9999C29 26.025 27.3584 27.6666 25.3333 27.6666H6.66667C4.64162 27.6666 3 26.025 3 23.9999V11.9999ZM6.66667 10.3333C5.74619 10.3333 5 11.0794 5 11.9999V23.9999C5 24.9204 5.74619 25.6666 6.66667 25.6666H25.3333C26.2538 25.6666 27 24.9204 27 23.9999V11.9999C27 11.0794 26.2538 10.3333 25.3333 10.3333H6.66667Z" fill="#26AF61"/>
<path d="M22 18.6666C21.6318 18.6666 21.3333 18.3681 21.3333 17.9999C21.3333 17.6317 21.6318 17.3333 22 17.3333C22.3682 17.3333 22.6667 17.6317 22.6667 17.9999C22.6667 18.3681 22.3682 18.6666 22 18.6666Z" fill="black"/>
<path fill-rule="evenodd" clip-rule="evenodd" d="M22 18.3333C21.8159 18.3333 21.6667 18.184 21.6667 17.9999C21.6667 17.8158 21.8159 17.6666 22 17.6666C22.1841 17.6666 22.3333 17.8158 22.3333 17.9999C22.3333 18.184 22.1841 18.3333 22 18.3333ZM23.6667 17.9999C23.6667 17.0794 22.9205 16.3333 22 16.3333C21.0795 16.3333 20.3333 17.0794 20.3333 17.9999C20.3333 18.9204 21.0795 19.6666 22 19.6666C22.9205 19.6666 23.6667 18.9204 23.6667 17.9999Z" fill="#26AF61"/>
<path fill-rule="evenodd" clip-rule="evenodd" d="M23 7.47092C23 6.37586 21.962 5.57837 20.9039 5.86052L6.23723 9.77163C5.50764 9.96619 5 10.6269 5 11.382V12H3V11.382C3 9.72084 4.11681 8.26719 5.7219 7.83916L20.3886 3.92805C22.7163 3.30732 25 5.0618 25 7.47092V9.33328H23V7.47092Z" fill="#26AF61"/>
</svg>
