<svg width="32" height="32" viewBox="0 0 32 32" fill="none" xmlns="http://www.w3.org/2000/svg">
<path fill-rule="evenodd" clip-rule="evenodd" d="M17.8398 5.06727C17.3283 4.42793 16.3361 4.49466 15.9149 5.19674L12.301 11.2199C11.6383 12.3243 10.4448 13.0001 9.15683 13.0001H5.66667V25.6668H21.9632C22.7148 25.6668 23.3734 25.1637 23.5712 24.4386L26.1166 15.1053C26.4058 14.0451 25.6076 13.0001 24.5087 13.0001H18.4086C17.2028 13.0001 16.338 11.8378 16.6845 10.6829L18.0477 6.13883C18.1586 5.76917 18.0809 5.36863 17.8398 5.06727ZM14.1999 4.16775C15.3382 2.27054 18.0194 2.0902 19.4015 3.81788C20.053 4.63224 20.263 5.71462 19.9633 6.71352L18.6774 11.0001H24.5087C26.9264 11.0001 28.6823 13.299 28.0461 15.6315L25.5007 24.9649C25.0656 26.5601 23.6167 27.6668 21.9632 27.6668H5.46667C4.47256 27.6668 3.66667 26.8609 3.66667 25.8668V12.8001C3.66667 11.806 4.47256 11.0001 5.46667 11.0001H9.15683C9.74227 11.0001 10.2848 10.6929 10.586 10.1909L14.1999 4.16775Z" fill="#26AF61"/>
<path fill-rule="evenodd" clip-rule="evenodd" d="M9.33333 27.6667C8.78104 27.6667 8.33333 27.219 8.33333 26.6667L8.33333 12.0001C8.33333 11.4478 8.78104 11.0001 9.33333 11.0001C9.88561 11.0001 10.3333 11.4478 10.3333 12.0001V26.6667C10.3333 27.219 9.88561 27.6667 9.33333 27.6667Z" fill="#26AF61"/>
</svg>
