<svg width="32" height="32" viewBox="0 0 32 32" fill="none" xmlns="http://www.w3.org/2000/svg">
<path fill-rule="evenodd" clip-rule="evenodd" d="M16 7C16.5523 7 17 7.44772 17 8L17 15L24 15C24.5523 15 25 15.4477 25 16C25 16.5523 24.5523 17 24 17L16 17C15.4477 17 15 16.5523 15 16L15 8C15 7.44772 15.4477 7 16 7Z" fill="#26AF61"/>
<path fill-rule="evenodd" clip-rule="evenodd" d="M16 3.66675C9.18849 3.66675 3.66667 9.18857 3.66667 16.0001C3.66667 22.8116 9.18849 28.3334 16 28.3334C22.8115 28.3334 28.3333 22.8116 28.3333 16.0001C28.3333 9.18857 22.8115 3.66675 16 3.66675ZM1.66667 16.0001C1.66667 8.084 8.08392 1.66675 16 1.66675C23.9161 1.66675 30.3333 8.084 30.3333 16.0001C30.3333 23.9162 23.9161 30.3334 16 30.3334C8.08392 30.3334 1.66667 23.9162 1.66667 16.0001Z" fill="#26AF61"/>
</svg>
