<svg width="24" height="24" viewBox="0 0 24 24" fill="none" xmlns="http://www.w3.org/2000/svg">
<path d="M1.63635 11.4549C1.63635 6.82655 1.63635 4.5124 3.07419 3.07456C4.51203 1.63672 6.82618 1.63672 11.4545 1.63672H12.2727C16.9011 1.63672 19.2152 1.63672 20.6531 3.07456C22.0909 4.5124 22.0909 6.82655 22.0909 11.4549V12.2731C22.0909 16.9014 22.0909 19.2156 20.6531 20.6534C19.2152 22.0913 16.9011 22.0913 12.2727 22.0913H11.4545C6.82618 22.0913 4.51203 22.0913 3.07419 20.6534C1.63635 19.2156 1.63635 16.9014 1.63635 12.2731V11.4549Z" fill="#0077FF"/>
<path d="M12.5199 16.3736C7.85798 16.3736 5.19893 13.1776 5.08813 7.85938H7.42336C7.50007 11.7628 9.22161 13.4162 10.5853 13.7571V7.85938H12.7842V11.2259C14.1308 11.081 15.5454 9.54688 16.0227 7.85938H18.2216C17.8551 9.93892 16.321 11.473 15.2301 12.1037C16.321 12.6151 18.0682 13.9531 18.733 16.3736H16.3125C15.7926 14.7543 14.4973 13.5014 12.7842 13.331V16.3736H12.5199Z" fill="white"/>
</svg>
