<svg width="24" height="24" viewBox="0 0 24 24" fill="none" xmlns="http://www.w3.org/2000/svg">
<path d="M21.6066 12.0862C21.6066 11.4309 21.5485 10.8087 21.449 10.2031H12.0751V13.9444H17.4423C17.2017 15.1721 16.4966 16.209 15.4514 16.9141V19.4028H18.6534C20.5282 17.669 21.6066 15.114 21.6066 12.0862Z" fill="#4285F4"/>
<path d="M12.0752 21.8166C14.7629 21.8166 17.011 20.9207 18.6535 19.4026L15.4514 16.914C14.5555 17.5113 13.419 17.8763 12.0752 17.8763C9.47869 17.8763 7.28039 16.1259 6.49233 13.7617H3.19073V16.325C4.82494 19.5768 8.1846 21.8166 12.0752 21.8166Z" fill="#34A853"/>
<path d="M6.49231 13.763C6.28492 13.1657 6.17708 12.527 6.17708 11.8633C6.17708 11.1997 6.29322 10.561 6.49231 9.96368V7.40039H3.19072C2.51049 8.74425 2.12061 10.254 2.12061 11.8633C2.12061 13.4727 2.51049 14.9824 3.19072 16.3263L6.49231 13.763Z" fill="#FBBC05"/>
<path d="M12.0752 5.84854C13.5435 5.84854 14.8541 6.35457 15.8911 7.34173L18.7281 4.50468C17.011 2.89536 14.7629 1.9082 12.0752 1.9082C8.1846 1.9082 4.82494 4.14798 3.19073 7.39979L6.49233 9.96309C7.28039 7.59889 9.47869 5.84854 12.0752 5.84854Z" fill="#EA4335"/>
</svg>
