<svg width="20" height="20" viewBox="0 0 20 20" fill="none" xmlns="http://www.w3.org/2000/svg">
<path fill-rule="evenodd" clip-rule="evenodd" d="M10 2.29167C6.66332 2.29167 3.95837 4.99662 3.95837 8.33334C3.95837 9.08942 4.30967 10.0591 4.91965 11.1425C5.52021 12.2092 6.32915 13.3131 7.15069 14.3186C7.9703 15.3217 8.79159 16.2136 9.40885 16.8554C9.63804 17.0937 9.83866 17.297 10 17.4583C10.1614 17.297 10.362 17.0937 10.5912 16.8554C11.2085 16.2136 12.0298 15.3217 12.8494 14.3186C13.6709 13.3131 14.4799 12.2092 15.0804 11.1425C15.6904 10.0591 16.0417 9.08942 16.0417 8.33334C16.0417 4.99662 13.3368 2.29167 10 2.29167ZM10 18.3333C9.57012 18.787 9.57003 18.7869 9.56991 18.7868L9.56424 18.7814L9.54888 18.7667L9.49091 18.711C9.44056 18.6623 9.36734 18.5911 9.2745 18.4995C9.08887 18.3162 8.82461 18.0512 8.5079 17.7219C7.87515 17.0639 7.02978 16.1462 6.18272 15.1095C5.3376 14.0752 4.47987 12.9093 3.83043 11.7558C3.19041 10.619 2.70837 9.41821 2.70837 8.33334C2.70837 4.30626 5.97296 1.04167 10 1.04167C14.0271 1.04167 17.2917 4.30626 17.2917 8.33334C17.2917 9.41821 16.8097 10.619 16.1697 11.7558C15.5202 12.9093 14.6625 14.0752 13.8174 15.1095C12.9703 16.1462 12.1249 17.0639 11.4922 17.7219C11.1755 18.0512 10.9112 18.3162 10.7256 18.4995C10.6327 18.5911 10.5595 18.6623 10.5092 18.711L10.4512 18.7667L10.4358 18.7814L10.4317 18.7853L10.4305 18.7864C10.4304 18.7866 10.43 18.787 10 18.3333ZM10 18.3333L10.4305 18.7864L10 19.1944L9.56991 18.7868L10 18.3333Z" fill="#26AF61"/>
<path d="M9.99996 9.16667C10.4602 9.16667 10.8333 8.79357 10.8333 8.33333C10.8333 7.8731 10.4602 7.5 9.99996 7.5C9.53972 7.5 9.16663 7.8731 9.16663 8.33333C9.16663 8.79357 9.53972 9.16667 9.99996 9.16667Z" fill="#26AF61"/>
<path fill-rule="evenodd" clip-rule="evenodd" d="M9.99996 8.125C9.8849 8.125 9.79163 8.21827 9.79163 8.33333C9.79163 8.44839 9.8849 8.54167 9.99996 8.54167C10.115 8.54167 10.2083 8.44839 10.2083 8.33333C10.2083 8.21827 10.115 8.125 9.99996 8.125ZM8.54163 8.33333C8.54163 7.52792 9.19454 6.875 9.99996 6.875C10.8054 6.875 11.4583 7.52792 11.4583 8.33333C11.4583 9.13875 10.8054 9.79167 9.99996 9.79167C9.19454 9.79167 8.54163 9.13875 8.54163 8.33333Z" fill="#26AF61"/>
</svg>
