<svg width="39" height="23" viewBox="0 0 39 23" fill="none" xmlns="http://www.w3.org/2000/svg">
<path fill-rule="evenodd" clip-rule="evenodd" d="M19.3365 20.244C17.2938 21.9149 14.6441 22.9237 11.7487 22.9237C5.28811 22.9237 0.0507812 17.9015 0.0507812 11.7063C0.0507812 5.51113 5.28811 0.488953 11.7487 0.488953C14.6441 0.488953 17.2938 1.49768 19.3365 3.16865C21.3792 1.49768 24.029 0.488953 26.9244 0.488953C33.3849 0.488953 38.6223 5.51113 38.6223 11.7063C38.6223 17.9015 33.3849 22.9237 26.9244 22.9237C24.029 22.9237 21.3792 21.9149 19.3365 20.244Z" fill="#ED0006"/>
<path fill-rule="evenodd" clip-rule="evenodd" d="M19.3359 20.2439C21.8511 18.1865 23.4459 15.125 23.4459 11.7063C23.4459 8.28763 21.8511 5.22615 19.3359 3.16868C21.3786 1.4977 24.0284 0.488953 26.9238 0.488953C33.3844 0.488953 38.6217 5.51113 38.6217 11.7063C38.6217 17.9015 33.3844 22.9237 26.9238 22.9237C24.0284 22.9237 21.3786 21.9149 19.3359 20.2439Z" fill="#F9A000"/>
<path fill-rule="evenodd" clip-rule="evenodd" d="M19.3366 20.2439C21.8517 18.1864 23.4466 15.1249 23.4466 11.7063C23.4466 8.28759 21.8517 5.22611 19.3366 3.16864C16.8214 5.22611 15.2266 8.28759 15.2266 11.7063C15.2266 15.1249 16.8214 18.1864 19.3366 20.2439Z" fill="#FF5E00"/>
</svg>
