<svg width="44" height="12" viewBox="0 0 44 12" fill="none" xmlns="http://www.w3.org/2000/svg">
<path fill-rule="evenodd" clip-rule="evenodd" d="M12.4041 0.172913V0.17792C12.3988 0.17792 10.7301 0.172913 10.2851 1.68011C9.87717 3.06212 8.7276 6.87768 8.69582 6.98283H8.37797C8.37797 6.98283 7.20191 3.08215 6.78871 1.6751C6.34371 0.167905 4.66969 0.172913 4.66969 0.172913H0.855469V11.6396H4.66969V4.8297H4.82862H4.98754L7.21251 11.6396H9.86127L12.0862 4.83471H12.4041V11.6396H16.2183V0.172913H12.4041Z" fill="#4DB45E"/>
<path fill-rule="evenodd" clip-rule="evenodd" d="M26.3354 0.172913C26.3354 0.172913 25.2176 0.268051 24.6932 1.37466L21.9915 6.98283H21.6736V0.172913H17.8594V11.6396H21.4617C21.4617 11.6396 22.6325 11.5395 23.1569 10.4379L25.8057 4.8297H26.1235V11.6396H29.9378V0.172913H26.3354Z" fill="#4DB45E"/>
<path fill-rule="evenodd" clip-rule="evenodd" d="M31.6328 5.38062V11.6397H35.447V7.98441H39.5791C41.3803 7.98441 42.906 6.89783 43.4728 5.38062H31.6328Z" fill="#4DB45E"/>
<path fill-rule="evenodd" clip-rule="evenodd" d="M39.579 0.172913H31.0977C31.5215 2.35609 33.2538 4.10865 35.4946 4.67948C36.0032 4.80967 36.5382 4.87977 37.0892 4.87977H43.6263C43.6846 4.61939 43.7111 4.35401 43.7111 4.0786C43.7111 1.92046 41.8622 0.172913 39.579 0.172913Z" fill="url(#paint0_linear_158_3208)"/>
<defs>
<linearGradient id="paint0_linear_158_3208" x1="31.0987" y1="2.52634" x2="43.7111" y2="2.52634" gradientUnits="userSpaceOnUse">
<stop offset="0.3" stop-color="#00B4E6"/>
<stop offset="1" stop-color="#088CCB"/>
</linearGradient>
</defs>
</svg>
