<svg width="24" height="24" viewBox="0 0 24 24" fill="none" xmlns="http://www.w3.org/2000/svg">
<path fill-rule="evenodd" clip-rule="evenodd" d="M19.9365 1.25L16.1855 1.25C15.8732 1.25 15.5935 1.44361 15.4835 1.73599L14.0281 5.60588C13.9799 5.73398 13.9677 5.87281 13.9928 6.00735L14.7221 9.91931C13.8257 12.0273 12.3451 13.4439 9.88944 14.7146L6.02449 13.9657C5.88728 13.9391 5.74536 13.9514 5.61475 14.0012L1.73299 15.4804C1.44221 15.5912 1.25006 15.87 1.25006 16.1812L1.25005 19.7655C1.25005 21.391 2.68225 22.7101 4.35751 22.3456C7.41112 21.6811 13.0684 19.9923 17.0304 16.0303C20.8255 12.2352 22.0971 6.99252 22.5251 4.15869C22.7693 2.54172 21.4725 1.25 19.9365 1.25ZM16.7048 2.75L19.9365 2.75C20.6555 2.75 21.1345 3.32183 21.0419 3.93467C20.6291 6.66748 19.4215 11.5179 15.9697 14.9697C12.3213 18.6181 7.01752 20.2317 4.03858 20.8799C3.38429 21.0222 2.75005 20.524 2.75005 19.7655L2.75006 16.698L5.94907 15.479L9.85737 16.2363C10.02 16.2678 10.1884 16.2446 10.3365 16.1703C13.2307 14.7176 15.1097 12.9954 16.1964 10.2785C16.2492 10.1466 16.2634 10.0023 16.2373 9.86255L15.5057 5.9381L16.7048 2.75Z" fill="#26AF61"/>
</svg>
