<svg width="32" height="32" viewBox="0 0 32 32" fill="none" xmlns="http://www.w3.org/2000/svg">
<path fill-rule="evenodd" clip-rule="evenodd" d="M19.9595 19.9596C20.35 19.569 20.9832 19.569 21.3737 19.9596L26.0404 24.6262C26.4309 25.0168 26.4309 25.6499 26.0404 26.0404C25.6499 26.431 25.0167 26.431 24.6262 26.0404L19.9595 21.3738C19.569 20.9833 19.569 20.3501 19.9595 19.9596Z" fill="#26AF61"/>
<path fill-rule="evenodd" clip-rule="evenodd" d="M14.6666 7.66667C10.8006 7.66667 7.66663 10.8007 7.66663 14.6667C7.66663 18.5327 10.8006 21.6667 14.6666 21.6667C16.6032 21.6667 18.3546 20.8816 19.623 19.6098C20.8869 18.3425 21.6666 16.5966 21.6666 14.6667C21.6666 10.8007 18.5326 7.66667 14.6666 7.66667ZM5.66663 14.6667C5.66663 9.69611 9.69606 5.66667 14.6666 5.66667C19.6372 5.66667 23.6666 9.69611 23.6666 14.6667C23.6666 17.1474 22.6617 19.3952 21.039 21.0222C19.4108 22.6547 17.1559 23.6667 14.6666 23.6667C9.69606 23.6667 5.66663 19.6372 5.66663 14.6667Z" fill="#26AF61"/>
</svg>
