<svg width="30" height="30" viewBox="0 0 30 30" fill="none" xmlns="http://www.w3.org/2000/svg">
<path d="M14.8182 29.1814C22.751 29.1814 29.1819 22.7506 29.1819 14.8177C29.1819 6.88492 22.751 0.454102 14.8182 0.454102C6.88541 0.454102 0.45459 6.88492 0.45459 14.8177C0.45459 22.7506 6.88541 29.1814 14.8182 29.1814Z" fill="#F6F7F9"/>
<path fill-rule="evenodd" clip-rule="evenodd" d="M6.95662 14.6667C11.1439 12.8423 13.9361 11.6396 15.3332 11.0585C19.3221 9.39939 20.151 9.11118 20.6912 9.10166C20.81 9.09957 21.0757 9.12902 21.2478 9.26866C21.3931 9.38657 21.4331 9.54585 21.4522 9.65765C21.4714 9.76944 21.4952 10.0241 21.4763 10.2231C21.2601 12.4943 20.3248 18.006 19.8489 20.5498C19.6476 21.6262 19.2511 21.9871 18.8673 22.0224C18.0332 22.0992 17.3998 21.4712 16.5919 20.9416C15.3277 20.1129 14.6135 19.597 13.3864 18.7884C11.9683 17.8539 12.8876 17.3402 13.6958 16.5008C13.9073 16.2811 17.5825 12.9383 17.6536 12.635C17.6625 12.5971 17.6707 12.4557 17.5868 12.3811C17.5028 12.3064 17.3788 12.332 17.2894 12.3523C17.1626 12.381 15.143 13.7159 11.2307 16.3568C10.6575 16.7504 10.1382 16.9422 9.67302 16.9322C9.16016 16.9211 8.17363 16.6422 7.44025 16.4038C6.54073 16.1114 5.8258 15.9568 5.88806 15.4602C5.92048 15.2016 6.27667 14.9371 6.95662 14.6667Z" fill="#49BEFF"/>
</svg>
