<svg width="43" height="14" viewBox="0 0 43 14" fill="none" xmlns="http://www.w3.org/2000/svg">
<path fill-rule="evenodd" clip-rule="evenodd" d="M11.2153 13.4197H7.58045L4.85476 3.56269C4.72539 3.10927 4.4507 2.70841 4.04663 2.51949C3.03823 2.04471 1.92705 1.66685 0.714844 1.47628V1.09679H6.57028C7.37842 1.09679 7.98452 1.66685 8.08553 2.32892L9.49977 9.43913L13.1328 1.09679H16.6667L11.2153 13.4197ZM18.6867 13.4197H15.2539L18.0806 1.09674H21.5134L18.6867 13.4197ZM25.9536 4.5106C26.0546 3.84689 26.6607 3.46739 27.3678 3.46739C28.479 3.37211 29.6894 3.56268 30.6996 4.03581L31.3057 1.38263C30.2955 1.00313 29.1843 0.812561 28.1759 0.812561C24.8441 0.812561 22.4197 2.51947 22.4197 4.88845C22.4197 6.69065 24.137 7.63692 25.3492 8.20699C26.6607 8.77541 27.1658 9.15491 27.0647 9.72333C27.0647 10.576 26.0546 10.9555 25.0462 10.9555C23.834 10.9555 22.6218 10.6712 21.5124 10.1965L20.9062 12.8513C22.1185 13.3244 23.4299 13.515 24.6421 13.515C28.378 13.6086 30.6996 11.9034 30.6996 9.34383C30.6996 6.12058 25.9536 5.93165 25.9536 4.5106ZM42.7126 13.4197L39.9869 1.09674H37.0592C36.4531 1.09674 35.847 1.47624 35.645 2.04466L30.5977 13.4197H34.1315L34.8368 11.6191H39.1788L39.5828 13.4197H42.7126ZM37.5683 4.41528L38.5767 9.0596H35.75L37.5683 4.41528Z" fill="#172B85"/>
</svg>
