<svg width="31" height="31" viewBox="0 0 31 31" fill="none" xmlns="http://www.w3.org/2000/svg">
<path d="M0.969666 15.2243C0.969666 8.5046 0.969666 5.14479 3.0572 3.05726C5.14473 0.969727 8.50454 0.969727 15.2242 0.969727H16.4121C23.1318 0.969727 26.4916 0.969727 28.5791 3.05726C30.6667 5.14479 30.6667 8.5046 30.6667 15.2243V16.4122C30.6667 23.1319 30.6667 26.4916 28.5791 28.5792C26.4916 30.6667 23.1318 30.6667 16.4121 30.6667H15.2242C8.50454 30.6667 5.14473 30.6667 3.0572 28.5792C0.969666 26.4916 0.969666 23.1319 0.969666 16.4122V15.2243Z" fill="white"/>
<path d="M16.7707 22.3633C10.0023 22.3633 6.14175 17.7232 5.9809 10.002H9.3713C9.48267 15.6691 11.9821 18.0696 13.9619 18.5646V10.002H17.1545V14.8896C19.1095 14.6792 21.1633 12.452 21.8562 10.002H25.0487C24.5166 13.0211 22.2894 15.2484 20.7055 16.1641C22.2894 16.9065 24.8261 18.8492 25.7913 22.3633H22.277C21.5222 20.0123 19.6416 18.1934 17.1545 17.9459V22.3633H16.7707Z" fill="#3195FF"/>
</svg>
