<svg width="31" height="31" viewBox="0 0 31 31" fill="none" xmlns="http://www.w3.org/2000/svg">
<path d="M0.969727 15.2242C0.969727 8.50456 0.969727 5.14475 3.05726 3.05722C5.14479 0.969685 8.5046 0.969685 15.2243 0.969685H16.4122C23.1319 0.969685 26.4916 0.969685 28.5792 3.05722C30.6667 5.14475 30.6667 8.50456 30.6667 15.2242V16.4121C30.6667 23.1318 30.6667 26.4916 28.5792 28.5792C26.4916 30.6667 23.1319 30.6667 16.4122 30.6667H15.2243C8.5046 30.6667 5.14479 30.6667 3.05726 28.5792C0.969727 26.4916 0.969727 23.1318 0.969727 16.4121V15.2242Z" fill="#F6F7F9"/>
<path d="M16.7708 22.3633C10.0024 22.3633 6.14182 17.7231 5.98096 10.0019H9.37136C9.48273 15.6691 11.9822 18.0696 13.962 18.5645V10.0019H17.1545V14.8895C19.1096 14.6792 21.1634 12.4519 21.8563 10.0019H25.0488C24.5167 13.0211 22.2894 15.2484 20.7056 16.164C22.2894 16.9065 24.8262 18.8491 25.7913 22.3633H22.2771C21.5223 20.0123 19.6416 18.1933 17.1545 17.9459V22.3633H16.7708Z" fill="#3195FF"/>
</svg>
