<svg width="28" height="29" viewBox="0 0 28 29" fill="none" xmlns="http://www.w3.org/2000/svg">
<path d="M0.405933 14.5605C0.405074 16.9721 1.03598 19.3265 2.23561 21.4022L0.291016 28.4937L7.55685 26.5908C9.55874 27.6804 11.8126 28.2556 14.1065 28.2563H14.1124C21.6664 28.2563 27.8149 22.1168 27.8182 14.5712C27.8196 10.9144 26.3952 7.47646 23.8074 4.88945C21.2199 2.30281 17.7787 0.877525 14.1118 0.875809C6.55744 0.875809 0.408865 7.01448 0.405591 14.5605L0.405933 14.5605ZM14.1122 28.2562H14.1124H14.1122C14.1121 28.2562 14.1119 28.2562 14.1122 28.2562Z" fill="#F6F7F9"/>
<path fill-rule="evenodd" clip-rule="evenodd" d="M10.5656 8.62911C10.2998 8.03904 10.0201 8.02723 9.76732 8.01684C9.56043 8.00805 9.32381 8.00863 9.08747 8.00863C8.85084 8.00863 8.46651 8.09731 8.14153 8.45188C7.81625 8.80647 6.89978 9.66359 6.89978 11.4068C6.89978 13.1502 8.17116 14.8347 8.34828 15.0713C8.52572 15.3075 10.8025 18.9993 14.4081 20.4195C17.4048 21.5998 18.0147 21.365 18.6651 21.3059C19.3155 21.2469 20.764 20.449 21.0595 19.6216C21.3552 18.7943 21.3552 18.0852 21.2665 17.9371C21.1779 17.7894 20.9413 17.7008 20.5865 17.5237C20.2317 17.3465 18.4876 16.4892 18.1625 16.371C17.8372 16.2529 17.6007 16.1939 17.3641 16.5486C17.1276 16.9029 16.4482 17.7008 16.2412 17.9371C16.0343 18.1739 15.8272 18.2035 15.4725 18.0262C15.1176 17.8484 13.9751 17.4747 12.6197 16.2677C11.565 15.3286 10.8531 14.1688 10.6461 13.814C10.4392 13.4597 10.624 13.2678 10.8018 13.0911C10.9612 12.9324 11.1567 12.6774 11.3341 12.4706C11.5111 12.2637 11.5702 12.1161 11.6884 11.8797C11.8068 11.6432 11.7476 11.4363 11.659 11.2591C11.5702 11.0818 10.8808 9.32965 10.5653 8.62901" fill="#1BC100"/>
</svg>
