<svg width="28" height="29" viewBox="0 0 28 29" fill="none" xmlns="http://www.w3.org/2000/svg">
<path d="M0.405933 14.5604C0.405074 16.972 1.03598 19.3265 2.23561 21.4021L0.291016 28.4936L7.55685 26.5907C9.55874 27.6803 11.8126 28.2555 14.1065 28.2562H14.1124C21.6664 28.2562 27.8149 22.1167 27.8182 14.5711C27.8196 10.9144 26.3952 7.47638 23.8074 4.88937C21.2199 2.30273 17.7787 0.877449 14.1118 0.875732C6.55744 0.875732 0.408865 7.0144 0.405591 14.5604L0.405933 14.5604ZM14.1122 28.2561H14.1124H14.1122C14.1121 28.2561 14.1119 28.2561 14.1122 28.2561Z" fill="white"/>
<path fill-rule="evenodd" clip-rule="evenodd" d="M10.5655 8.62904C10.2997 8.03896 10.02 8.02715 9.76726 8.01677C9.56037 8.00798 9.32375 8.00855 9.08741 8.00855C8.85078 8.00855 8.46645 8.09723 8.14147 8.4518C7.81619 8.80639 6.89972 9.66351 6.89972 11.4067C6.89972 13.1501 8.1711 14.8346 8.34822 15.0713C8.52565 15.3075 10.8025 18.9993 14.408 20.4194C17.4048 21.5997 18.0146 21.3649 18.665 21.3058C19.3154 21.2468 20.7639 20.4489 21.0595 19.6215C21.3551 18.7943 21.3551 18.0851 21.2665 17.937C21.1778 17.7894 20.9412 17.7007 20.5865 17.5236C20.2316 17.3464 18.4876 16.4891 18.1624 16.3709C17.8372 16.2528 17.6007 16.1938 17.364 16.5485C17.1276 16.9028 16.4481 17.7007 16.2411 17.937C16.0342 18.1738 15.8272 18.2034 15.4724 18.0262C15.1176 17.8484 13.975 17.4746 12.6196 16.2676C11.565 15.3285 10.853 14.1687 10.646 13.8139C10.4391 13.4596 10.6239 13.2677 10.8018 13.0911C10.9612 12.9323 11.1566 12.6774 11.3341 12.4706C11.5111 12.2636 11.5701 12.116 11.6884 11.8796C11.8068 11.6431 11.7476 11.4362 11.6589 11.259C11.5701 11.0818 10.8807 9.32958 10.5653 8.62893" fill="#1BC100"/>
</svg>
