<svg width="32" height="32" viewBox="0 0 32 32" fill="none" xmlns="http://www.w3.org/2000/svg">
<path d="M15.6377 1.81836C11.5276 1.81836 8.18414 5.01785 8.18414 8.95114C8.18414 12.8841 11.5276 16.0822 15.6377 16.0822C19.7476 16.0822 23.0895 12.8841 23.0895 8.95114C23.0895 5.01785 19.7476 1.81836 15.6377 1.81836ZM15.6377 5.9975C17.3387 5.9975 18.722 7.32314 18.722 8.95114C18.722 10.5785 17.3388 11.9031 15.6377 11.9031C13.9363 11.9031 12.5516 10.5785 12.5516 8.95114C12.5516 7.32314 13.9363 5.9975 15.6377 5.9975ZM9.49259 16.3249C8.75516 16.3139 8.03 16.6618 7.60934 17.3033C6.96648 18.2808 7.27444 19.5705 8.29335 20.1853C9.64109 20.9945 11.1036 21.5687 12.6202 21.8996L8.45488 25.8879C7.60218 26.7044 7.6029 28.0268 8.45577 28.8433C8.88325 29.2508 9.44078 29.4547 9.99973 29.4547C10.5581 29.4547 11.1175 29.2505 11.5437 28.8424L15.6359 24.9241L19.7318 28.8424C20.5838 29.6587 21.9653 29.6587 22.8188 28.8424C23.6718 28.0264 23.6718 26.7027 22.8188 25.8879L18.6516 21.9005C20.1687 21.5696 21.6317 20.9951 22.9785 20.1853C23.9994 19.5706 24.3078 18.2794 23.6652 17.3034C23.0218 16.3257 21.6747 16.0312 20.6531 16.647C17.6017 18.484 13.67 18.4828 10.6196 16.647C10.2685 16.4353 9.87886 16.3306 9.49259 16.3249V16.3249Z" fill="#EE8208"/>
</svg>
