<svg width="32" height="32" viewBox="0 0 32 32" fill="none" xmlns="http://www.w3.org/2000/svg">
<path d="M16.1816 30.1819C23.9136 30.1819 30.1816 23.9139 30.1816 16.1819C30.1816 8.4499 23.9136 2.18188 16.1816 2.18188C8.44965 2.18188 2.18164 8.4499 2.18164 16.1819C2.18164 23.9139 8.44965 30.1819 16.1816 30.1819Z" fill="url(#paint0_linear_158_3807)"/>
<path fill-rule="evenodd" clip-rule="evenodd" d="M8.51785 16.0338C12.5991 14.2557 15.3206 13.0834 16.6823 12.517C20.5703 10.8999 21.3782 10.619 21.9047 10.6097C22.0205 10.6077 22.2795 10.6364 22.4472 10.7725C22.5889 10.8874 22.6278 11.0427 22.6465 11.1516C22.6651 11.2606 22.6884 11.5088 22.6699 11.7028C22.4592 13.9165 21.5476 19.2886 21.0838 21.768C20.8875 22.8172 20.5011 23.1689 20.127 23.2034C19.314 23.2782 18.6966 22.6661 17.9092 22.1499C16.677 21.3422 15.9809 20.8394 14.7849 20.0512C13.4026 19.1403 14.2987 18.6397 15.0864 17.8215C15.2926 17.6074 18.8747 14.3492 18.944 14.0536C18.9527 14.0167 18.9607 13.8789 18.8789 13.8061C18.797 13.7333 18.6762 13.7582 18.589 13.778C18.4654 13.8061 16.497 15.1071 12.6837 17.6812C12.125 18.0649 11.6189 18.2518 11.1655 18.242C10.6656 18.2312 9.70405 17.9594 8.98924 17.727C8.11249 17.442 7.41566 17.2913 7.47634 16.8073C7.50794 16.5552 7.85512 16.2974 8.51785 16.0338Z" fill="white"/>
<defs>
<linearGradient id="paint0_linear_158_3807" x1="16.1816" y1="2.18188" x2="16.1816" y2="29.9742" gradientUnits="userSpaceOnUse">
<stop stop-color="#2AABEE"/>
<stop offset="1" stop-color="#229ED9"/>
</linearGradient>
</defs>
</svg>
