<svg width="32" height="32" viewBox="0 0 32 32" fill="none" xmlns="http://www.w3.org/2000/svg">
<path d="M26.4583 4.47391C25.7627 3.8276 22.9517 1.77276 16.6905 1.74484C16.6905 1.74484 9.30685 1.29648 5.70745 4.62111C3.70383 6.63915 2.99898 9.59197 2.92464 13.2529C2.85029 16.9138 2.7541 23.7745 9.32155 25.6348H9.32785L9.32365 28.4734C9.32365 28.4734 9.28164 29.6226 10.0331 29.857C10.9421 30.1412 11.4756 29.2677 12.3434 28.3262C12.8197 27.8093 13.4775 27.0501 13.9732 26.4697C18.4647 26.8504 21.9192 25.9803 22.3115 25.8518C23.2184 25.5557 28.3501 24.8933 29.1848 18.0334C30.0463 10.9624 28.7681 6.48983 26.4583 4.47391ZM27.2194 17.5262C26.515 23.2542 22.3527 23.6142 21.5853 23.8621C21.2589 23.9678 18.2249 24.7279 14.4096 24.4771C14.4096 24.4771 11.5667 27.9307 10.6787 28.8287C10.5401 28.9691 10.3771 29.0258 10.2683 28.9979C10.1154 28.9602 10.0734 28.7779 10.0751 28.5115C10.0776 28.1308 10.0995 23.7944 10.0995 23.7944C10.0961 23.7944 10.0995 23.7944 10.0995 23.7944C4.54392 22.2412 4.86778 16.402 4.93079 13.3442C4.99379 10.2865 5.56422 7.78162 7.25869 6.09689C10.3032 3.32002 16.5749 3.73496 16.5749 3.73496C21.8713 3.75823 24.4093 5.36428 24.9977 5.90231C26.9518 7.58705 27.9473 11.6185 27.2194 17.5245V17.5262Z" fill="#7360F2"/>
<path fill-rule="evenodd" clip-rule="evenodd" d="M16.7974 10.8712C16.8076 10.6745 16.9741 10.5234 17.1694 10.5337C17.9001 10.5721 18.508 10.7948 18.941 11.2456C19.3723 11.6947 19.5837 12.322 19.6209 13.0754C19.6305 13.2721 19.4801 13.4395 19.2847 13.4492C19.0894 13.459 18.9232 13.3074 18.9135 13.1108C18.8818 12.4658 18.706 12.0267 18.4319 11.7414C18.1595 11.4577 17.7438 11.278 17.1325 11.2459C16.9372 11.2356 16.7872 11.0679 16.7974 10.8712Z" fill="#7360F2"/>
<path fill-rule="evenodd" clip-rule="evenodd" d="M16.2627 8.9497C16.277 8.7533 16.4466 8.60573 16.6417 8.62011C18.1287 8.72969 19.3256 9.24133 20.1974 10.1996L20.1975 10.1998C21.0599 11.1487 21.4698 12.3291 21.44 13.7136C21.4358 13.9105 21.2738 14.0667 21.0783 14.0624C20.8828 14.0581 20.7277 13.8951 20.732 13.6982C20.7582 12.4772 20.4016 11.4807 19.6751 10.6812C18.9508 9.88512 17.9382 9.43071 16.59 9.33135C16.3949 9.31698 16.2484 9.14611 16.2627 8.9497Z" fill="#7360F2"/>
<path fill-rule="evenodd" clip-rule="evenodd" d="M15.6367 7.12362C15.6381 6.9267 15.7977 6.76817 15.9933 6.76954C18.0483 6.78395 19.7852 7.47284 21.1799 8.84187C22.5861 10.2223 23.2816 12.1017 23.2992 14.4359C23.3007 14.6328 23.1434 14.7937 22.9478 14.7952C22.7523 14.7966 22.5925 14.6382 22.591 14.4413C22.5745 12.2541 21.9283 10.5725 20.6855 9.35252C19.431 8.12106 17.8734 7.49589 15.9884 7.48267C15.7928 7.4813 15.6354 7.32055 15.6367 7.12362Z" fill="#7360F2"/>
<path d="M17.2231 17.8686C17.2231 17.8686 17.7209 17.9109 17.9889 17.5785L18.5114 16.9165C18.7634 16.5883 19.3717 16.3789 19.9673 16.7131C20.4136 16.9694 20.847 17.2481 21.2657 17.548C21.6609 17.8407 22.4704 18.5209 22.4729 18.5209C22.8585 18.8487 22.9475 19.33 22.685 19.8376C22.685 19.8406 22.6829 19.8457 22.6829 19.8482C22.3938 20.3529 22.0267 20.8081 21.5954 21.1966C21.5904 21.1992 21.5904 21.2017 21.5857 21.2043C21.2111 21.5195 20.843 21.6987 20.4814 21.7419C20.4282 21.7513 20.3741 21.7547 20.3201 21.752C20.1607 21.7536 20.0021 21.729 19.8505 21.6793L19.8388 21.6619C19.2818 21.5037 18.3518 21.1078 16.8031 20.2475C15.9069 19.7555 15.0536 19.1879 14.2525 18.5509C13.851 18.2318 13.468 17.8898 13.1054 17.5264L13.0667 17.4875L13.0281 17.4486L12.9895 17.4097C12.9764 17.397 12.9638 17.3839 12.9508 17.3708C12.59 17.0057 12.2504 16.62 11.9335 16.2156C11.301 15.409 10.7373 14.55 10.2486 13.6477C9.39427 12.0878 9.0011 11.1521 8.84401 10.5904L8.82678 10.5786C8.77754 10.4259 8.75328 10.2662 8.75496 10.1057C8.75202 10.0513 8.75526 9.99685 8.76462 9.94326C8.8097 9.57978 8.98794 9.20882 9.29934 8.8304C9.30186 8.82574 9.30438 8.82574 9.3069 8.82067C9.69263 8.3864 10.1447 8.01687 10.646 7.72599C10.6485 7.72599 10.6536 7.72346 10.6565 7.72346C11.1606 7.45909 11.6386 7.54877 11.9637 7.93495C11.9662 7.93749 12.6404 8.75257 12.9298 9.15059C13.2277 9.57262 13.5045 10.0094 13.759 10.4593C14.0908 11.0587 13.8829 11.6724 13.5569 11.9253L12.8996 12.4515C12.5677 12.7214 12.6114 13.2226 12.6114 13.2226C12.6114 13.2226 13.5851 16.9334 17.2231 17.8686Z" fill="#7360F2"/>
</svg>
