<svg width="27" height="27" viewBox="0 0 27 27" fill="none" xmlns="http://www.w3.org/2000/svg">
<path d="M0.908203 13.3009C0.908203 7.45892 0.908203 4.53795 2.72308 2.72308C4.53795 0.908203 7.45892 0.908203 13.3009 0.908203H14.3337C20.1757 0.908203 23.0966 0.908203 24.9115 2.72308C26.7264 4.53795 26.7264 7.45892 26.7264 13.3009V14.3337C26.7264 20.1757 26.7264 23.0966 24.9115 24.9115C23.0966 26.7264 20.1757 26.7264 14.3337 26.7264H13.3009C7.45892 26.7264 4.53795 26.7264 2.72308 24.9115C0.908203 23.0966 0.908203 20.1757 0.908203 14.3337V13.3009Z" fill="#0077FF"/>
<path d="M14.6462 19.5085C8.76178 19.5085 5.40547 15.4744 5.26562 8.76172H8.2132C8.31002 13.6887 10.483 15.7757 12.2042 16.206V8.76172H14.9798V13.011C16.6795 12.8281 18.465 10.8917 19.0674 8.76172H21.8429C21.3804 11.3866 19.444 13.3229 18.067 14.119C19.444 14.7644 21.6494 16.4534 22.4885 19.5085H19.4332C18.777 17.4646 17.142 15.8832 14.9798 15.6681V19.5085H14.6462Z" fill="white"/>
</svg>
