<svg width="32" height="32" viewBox="0 0 32 32" fill="none" xmlns="http://www.w3.org/2000/svg">
<path d="M2.76618 15.563C2.76534 17.9109 3.37956 20.2031 4.54747 22.2238L2.6543 29.1278L9.728 27.2752C11.677 28.336 13.8713 28.896 16.1045 28.8967H16.1102C23.4644 28.8967 29.4504 22.9196 29.4536 15.5735C29.455 12.0134 28.0683 8.66634 25.5488 6.14774C23.0297 3.6295 19.6795 2.24191 16.1096 2.24023C8.75502 2.24023 2.76903 8.21658 2.76584 15.5631L2.76618 15.563ZM16.11 28.8966H16.1102H16.11C16.1099 28.8966 16.1097 28.8966 16.11 28.8966Z" fill="url(#paint0_linear_158_3794)"/>
<path fill-rule="evenodd" clip-rule="evenodd" d="M12.6567 9.78963C12.398 9.21516 12.1257 9.20366 11.8796 9.19355C11.6782 9.185 11.4478 9.18555 11.2177 9.18555C10.9874 9.18555 10.6132 9.27189 10.2968 9.61709C9.98013 9.9623 9.08789 10.7968 9.08789 12.4939C9.08789 14.1912 10.3256 15.8311 10.4981 16.0615C10.6708 16.2915 12.8874 19.8856 16.3976 21.2682C19.3152 22.4173 19.9089 22.1887 20.5421 22.1312C21.1753 22.0737 22.5855 21.297 22.8732 20.4915C23.1611 19.6861 23.1611 18.9957 23.0748 18.8515C22.9885 18.7077 22.7581 18.6214 22.4127 18.449C22.0672 18.2765 20.3693 17.4419 20.0528 17.3268C19.7361 17.2118 19.5059 17.1544 19.2755 17.4997C19.0453 17.8446 18.3838 18.6214 18.1823 18.8515C17.9808 19.082 17.7793 19.1108 17.4339 18.9383C17.0884 18.7652 15.9761 18.4013 14.6565 17.2263C13.6298 16.3119 12.9367 15.1828 12.7351 14.8374C12.5337 14.4925 12.7136 14.3057 12.8868 14.1337C13.0419 13.9791 13.2323 13.7309 13.405 13.5296C13.5773 13.3281 13.6348 13.1844 13.7499 12.9543C13.8652 12.724 13.8076 12.5226 13.7212 12.35C13.6348 12.1775 12.9636 10.4716 12.6565 9.78953" fill="white"/>
<defs>
<linearGradient id="paint0_linear_158_3794" x1="16.0541" y1="29.125" x2="16.0541" y2="2.23741" gradientUnits="userSpaceOnUse">
<stop stop-color="#20B038"/>
<stop offset="1" stop-color="#60D66A"/>
</linearGradient>
</defs>
</svg>
