<svg width="32" height="32" viewBox="0 0 32 32" fill="none" xmlns="http://www.w3.org/2000/svg">
<path fill-rule="evenodd" clip-rule="evenodd" d="M11.293 13.9596C11.6836 13.5691 12.3167 13.5691 12.7073 13.9596L16.0002 17.2525L25.9597 7.29291C26.3502 6.90238 26.9834 6.90239 27.3739 7.29291C27.7645 7.68343 27.7645 8.3166 27.3739 8.70712L16.7073 19.3738C16.3167 19.7643 15.6836 19.7643 15.293 19.3738L11.293 15.3738C10.9025 14.9833 10.9025 14.3501 11.293 13.9596Z" fill="#26AF61"/>
<path fill-rule="evenodd" clip-rule="evenodd" d="M16.0002 6.33331C10.6614 6.33331 6.3335 10.6612 6.3335 16C6.3335 21.3387 10.6614 25.6666 16.0002 25.6666C21.3389 25.6666 25.6668 21.3387 25.6668 16C25.6668 15.4477 26.1145 15 26.6668 15C27.2191 15 27.6668 15.4477 27.6668 16C27.6668 22.4433 22.4435 27.6666 16.0002 27.6666C9.55684 27.6666 4.3335 22.4433 4.3335 16C4.3335 9.55666 9.55684 4.33331 16.0002 4.33331C17.3798 4.33331 18.7056 4.57321 19.9367 5.01442C20.4566 5.20074 20.727 5.77325 20.5407 6.29316C20.3544 6.81306 19.7819 7.08348 19.262 6.89716C18.2443 6.53244 17.1466 6.33331 16.0002 6.33331Z" fill="#26AF61"/>
</svg>
